# xmcd CD database file
#
# Track frame offsets:
#	150
#	54045
#	107460
#	159067
#
# Disc length: 2833 seconds
#
# Revision: 2
# Processed by: cddbd v1.5.2PL0 Copyright (c) Steve Scherf et al.
# Submitted via: CDex 1.84
#
DISCID=1a0b0f04
DTITLE=KRB Music Companies - 5:30 Wind-Down and Rejuvenation of the Spirit
DYEAR=1996
DGENRE=New Age
TTITLE0=5:30 Wind-down Part 1
TTITLE1=5:30 Wind-down Part 2
TTITLE2=Rejuvenation of the Spirit Part 1
TTITLE3=Rejuvenation of the Spirit Part 2
EXTD=YEAR: 1996
EXTT0=
EXTT1=
EXTT2=
EXTT3=
PLAYORDER=
